G04 #@! TF.FileFunction,Legend,Top*
%FSLAX46Y46*%
G04 Gerber Fmt 4.6, Leading zero omitted, Abs format (unit mm)*
G04 Created by KiCad (PCBNEW 4.0.6) date Monday, December 04, 2017 'PMt' 02:56:03 PM*
%MOMM*%
%LPD*%
G01*
G04 APERTURE LIST*
%ADD10C,0.100000*%
%ADD11C,0.120000*%
%ADD12C,0.150000*%
G04 APERTURE END LIST*
D10*
D11*
X166100000Y-123440000D02*
X164100000Y-123440000D01*
X164100000Y-125480000D02*
X166100000Y-125480000D01*
X166100000Y-113280000D02*
X164100000Y-113280000D01*
X164100000Y-115320000D02*
X166100000Y-115320000D01*
X148170000Y-127040000D02*
X146470000Y-127040000D01*
X146470000Y-127090000D02*
X146470000Y-131140000D01*
X148170000Y-127090000D02*
X148170000Y-131140000D01*
X172000000Y-127910000D02*
X170900000Y-127910000D01*
X170900000Y-127910000D02*
X170900000Y-130510000D01*
X172000000Y-127910000D02*
X172000000Y-130510000D01*
X161630000Y-124090000D02*
X161630000Y-122290000D01*
X158410000Y-122290000D02*
X158410000Y-124740000D01*
X155830000Y-134200000D02*
X163830000Y-134200000D01*
X155830000Y-126880000D02*
X163830000Y-126880000D01*
X163830000Y-126880000D02*
X163830000Y-134200000D01*
X163830000Y-133580000D02*
X155830000Y-133580000D01*
X155830000Y-134200000D02*
X155830000Y-126880000D01*
X171140000Y-122450000D02*
X172070000Y-122450000D01*
X174300000Y-122450000D02*
X173370000Y-122450000D01*
X174300000Y-122450000D02*
X174300000Y-119290000D01*
X171140000Y-122450000D02*
X171140000Y-120990000D01*
X151400000Y-129740000D02*
X153400000Y-129740000D01*
X153400000Y-131880000D02*
X151400000Y-131880000D01*
X166100000Y-119180000D02*
X164100000Y-119180000D01*
X164100000Y-117040000D02*
X166100000Y-117040000D01*
X166570000Y-130540000D02*
X166570000Y-128540000D01*
X168710000Y-128540000D02*
X168710000Y-130540000D01*
D12*
X160055000Y-113495000D02*
X160005000Y-113495000D01*
X160055000Y-117645000D02*
X159910000Y-117645000D01*
X154905000Y-117645000D02*
X155050000Y-117645000D01*
X154905000Y-113495000D02*
X155050000Y-113495000D01*
X160055000Y-113495000D02*
X160055000Y-117645000D01*
X154905000Y-113495000D02*
X154905000Y-117645000D01*
X160005000Y-113495000D02*
X160005000Y-112095000D01*
X154732000Y-107562000D02*
X151732000Y-107562000D01*
X154732000Y-109862000D02*
X154732000Y-107562000D01*
X164933334Y-123067143D02*
X164885715Y-123114762D01*
X164742858Y-123162381D01*
X164647620Y-123162381D01*
X164504762Y-123114762D01*
X164409524Y-123019524D01*
X164361905Y-122924286D01*
X164314286Y-122733810D01*
X164314286Y-122590952D01*
X164361905Y-122400476D01*
X164409524Y-122305238D01*
X164504762Y-122210000D01*
X164647620Y-122162381D01*
X164742858Y-122162381D01*
X164885715Y-122210000D01*
X164933334Y-122257619D01*
X165885715Y-123162381D02*
X165314286Y-123162381D01*
X165600000Y-123162381D02*
X165600000Y-122162381D01*
X165504762Y-122305238D01*
X165409524Y-122400476D01*
X165314286Y-122448095D01*
X164933334Y-112907143D02*
X164885715Y-112954762D01*
X164742858Y-113002381D01*
X164647620Y-113002381D01*
X164504762Y-112954762D01*
X164409524Y-112859524D01*
X164361905Y-112764286D01*
X164314286Y-112573810D01*
X164314286Y-112430952D01*
X164361905Y-112240476D01*
X164409524Y-112145238D01*
X164504762Y-112050000D01*
X164647620Y-112002381D01*
X164742858Y-112002381D01*
X164885715Y-112050000D01*
X164933334Y-112097619D01*
X165314286Y-112097619D02*
X165361905Y-112050000D01*
X165457143Y-112002381D01*
X165695239Y-112002381D01*
X165790477Y-112050000D01*
X165838096Y-112097619D01*
X165885715Y-112192857D01*
X165885715Y-112288095D01*
X165838096Y-112430952D01*
X165266667Y-113002381D01*
X165885715Y-113002381D01*
X149372381Y-130278095D02*
X148372381Y-130278095D01*
X148372381Y-130040000D01*
X148420000Y-129897142D01*
X148515238Y-129801904D01*
X148610476Y-129754285D01*
X148800952Y-129706666D01*
X148943810Y-129706666D01*
X149134286Y-129754285D01*
X149229524Y-129801904D01*
X149324762Y-129897142D01*
X149372381Y-130040000D01*
X149372381Y-130278095D01*
X149372381Y-128754285D02*
X149372381Y-129325714D01*
X149372381Y-129040000D02*
X148372381Y-129040000D01*
X148515238Y-129135238D01*
X148610476Y-129230476D01*
X148658095Y-129325714D01*
X173352381Y-130448095D02*
X172352381Y-130448095D01*
X172352381Y-130210000D01*
X172400000Y-130067142D01*
X172495238Y-129971904D01*
X172590476Y-129924285D01*
X172780952Y-129876666D01*
X172923810Y-129876666D01*
X173114286Y-129924285D01*
X173209524Y-129971904D01*
X173304762Y-130067142D01*
X173352381Y-130210000D01*
X173352381Y-130448095D01*
X172447619Y-129495714D02*
X172400000Y-129448095D01*
X172352381Y-129352857D01*
X172352381Y-129114761D01*
X172400000Y-129019523D01*
X172447619Y-128971904D01*
X172542857Y-128924285D01*
X172638095Y-128924285D01*
X172780952Y-128971904D01*
X173352381Y-129543333D01*
X173352381Y-128924285D01*
X157572381Y-124166190D02*
X156572381Y-124166190D01*
X157477143Y-123118571D02*
X157524762Y-123166190D01*
X157572381Y-123309047D01*
X157572381Y-123404285D01*
X157524762Y-123547143D01*
X157429524Y-123642381D01*
X157334286Y-123690000D01*
X157143810Y-123737619D01*
X157000952Y-123737619D01*
X156810476Y-123690000D01*
X156715238Y-123642381D01*
X156620000Y-123547143D01*
X156572381Y-123404285D01*
X156572381Y-123309047D01*
X156620000Y-123166190D01*
X156667619Y-123118571D01*
X157572381Y-122166190D02*
X157572381Y-122737619D01*
X157572381Y-122451905D02*
X156572381Y-122451905D01*
X156715238Y-122547143D01*
X156810476Y-122642381D01*
X156858095Y-122737619D01*
X156885667Y-129294381D02*
X156885667Y-130008667D01*
X156838047Y-130151524D01*
X156742809Y-130246762D01*
X156599952Y-130294381D01*
X156504714Y-130294381D01*
X157885667Y-130294381D02*
X157314238Y-130294381D01*
X157599952Y-130294381D02*
X157599952Y-129294381D01*
X157504714Y-129437238D01*
X157409476Y-129532476D01*
X157314238Y-129580095D01*
X175767619Y-121785238D02*
X175720000Y-121880476D01*
X175624762Y-121975714D01*
X175481905Y-122118571D01*
X175434286Y-122213810D01*
X175434286Y-122309048D01*
X175672381Y-122261429D02*
X175624762Y-122356667D01*
X175529524Y-122451905D01*
X175339048Y-122499524D01*
X175005714Y-122499524D01*
X174815238Y-122451905D01*
X174720000Y-122356667D01*
X174672381Y-122261429D01*
X174672381Y-122070952D01*
X174720000Y-121975714D01*
X174815238Y-121880476D01*
X175005714Y-121832857D01*
X175339048Y-121832857D01*
X175529524Y-121880476D01*
X175624762Y-121975714D01*
X175672381Y-122070952D01*
X175672381Y-122261429D01*
X175672381Y-120880476D02*
X175672381Y-121451905D01*
X175672381Y-121166191D02*
X174672381Y-121166191D01*
X174815238Y-121261429D01*
X174910476Y-121356667D01*
X174958095Y-121451905D01*
X152233334Y-133112381D02*
X151900000Y-132636190D01*
X151661905Y-133112381D02*
X151661905Y-132112381D01*
X152042858Y-132112381D01*
X152138096Y-132160000D01*
X152185715Y-132207619D01*
X152233334Y-132302857D01*
X152233334Y-132445714D01*
X152185715Y-132540952D01*
X152138096Y-132588571D01*
X152042858Y-132636190D01*
X151661905Y-132636190D01*
X153185715Y-133112381D02*
X152614286Y-133112381D01*
X152900000Y-133112381D02*
X152900000Y-132112381D01*
X152804762Y-132255238D01*
X152709524Y-132350476D01*
X152614286Y-132398095D01*
X164933334Y-116712381D02*
X164600000Y-116236190D01*
X164361905Y-116712381D02*
X164361905Y-115712381D01*
X164742858Y-115712381D01*
X164838096Y-115760000D01*
X164885715Y-115807619D01*
X164933334Y-115902857D01*
X164933334Y-116045714D01*
X164885715Y-116140952D01*
X164838096Y-116188571D01*
X164742858Y-116236190D01*
X164361905Y-116236190D01*
X165314286Y-115807619D02*
X165361905Y-115760000D01*
X165457143Y-115712381D01*
X165695239Y-115712381D01*
X165790477Y-115760000D01*
X165838096Y-115807619D01*
X165885715Y-115902857D01*
X165885715Y-115998095D01*
X165838096Y-116140952D01*
X165266667Y-116712381D01*
X165885715Y-116712381D01*
X169942381Y-129706666D02*
X169466190Y-130040000D01*
X169942381Y-130278095D02*
X168942381Y-130278095D01*
X168942381Y-129897142D01*
X168990000Y-129801904D01*
X169037619Y-129754285D01*
X169132857Y-129706666D01*
X169275714Y-129706666D01*
X169370952Y-129754285D01*
X169418571Y-129801904D01*
X169466190Y-129897142D01*
X169466190Y-130278095D01*
X168942381Y-129373333D02*
X168942381Y-128754285D01*
X169323333Y-129087619D01*
X169323333Y-128944761D01*
X169370952Y-128849523D01*
X169418571Y-128801904D01*
X169513810Y-128754285D01*
X169751905Y-128754285D01*
X169847143Y-128801904D01*
X169894762Y-128849523D01*
X169942381Y-128944761D01*
X169942381Y-129230476D01*
X169894762Y-129325714D01*
X169847143Y-129373333D01*
X160432381Y-116331905D02*
X161241905Y-116331905D01*
X161337143Y-116284286D01*
X161384762Y-116236667D01*
X161432381Y-116141429D01*
X161432381Y-115950952D01*
X161384762Y-115855714D01*
X161337143Y-115808095D01*
X161241905Y-115760476D01*
X160432381Y-115760476D01*
X161432381Y-114760476D02*
X161432381Y-115331905D01*
X161432381Y-115046191D02*
X160432381Y-115046191D01*
X160575238Y-115141429D01*
X160670476Y-115236667D01*
X160718095Y-115331905D01*
X152755809Y-110688190D02*
X152755809Y-111164381D01*
X152422476Y-110164381D02*
X152755809Y-110688190D01*
X153089143Y-110164381D01*
X153946286Y-111164381D02*
X153374857Y-111164381D01*
X153660571Y-111164381D02*
X153660571Y-110164381D01*
X153565333Y-110307238D01*
X153470095Y-110402476D01*
X153374857Y-110450095D01*
M02*
